<?xml version="1.0" encoding="utf-8"?>
<!-- Generator: Adobe Illustrator 27.9.0, SVG Export Plug-In . SVG Version: 6.00 Build 0)  -->
<svg version="1.1" id="Layer_1" xmlns="http://www.w3.org/2000/svg" xmlns:xlink="http://www.w3.org/1999/xlink" x="0px" y="0px"
	 width="33px" height="35px" viewBox="0 0 33 35" style="enable-background:new 0 0 33 35;" xml:space="preserve">
<path d="M16.5,22c2.4,0,4.4-2.1,4.4-4.6c0-2.6-2-4.6-4.4-4.6c-2.4,0-4.4,2.1-4.4,4.6C12.1,19.9,14.1,22,16.5,22z"/>
<path d="M12.4,2.9L9.9,5.8H5.5C4,5.8,2.8,7.1,2.8,8.7V26c0,1.6,1.2,2.9,2.8,2.9h22c1.5,0,2.8-1.3,2.8-2.9V8.7c0-1.6-1.2-2.9-2.8-2.9
	h-4.4l-2.5-2.9H12.4z M16.5,24.6c-3.8,0-6.9-3.2-6.9-7.2s3.1-7.2,6.9-7.2s6.9,3.2,6.9,7.2S20.3,24.6,16.5,24.6z"/>
</svg>
