<svg width="32" height="32" viewBox="0 0 32 32" fill="none" xmlns="http://www.w3.org/2000/svg">
<path d="M32 3C32 2.73478 31.8946 2.48043 31.7071 2.29289C31.5196 2.10536 31.2652 2 31 2H28C27.7769 2.00006 27.5603 2.0747 27.3845 2.21205C27.2088 2.3494 27.084 2.54157 27.03 2.758L26.22 6H3C2.85316 6.00014 2.70816 6.03261 2.57529 6.0951C2.44242 6.1576 2.32495 6.24859 2.23121 6.36161C2.13747 6.47463 2.06978 6.6069 2.03293 6.74904C1.99608 6.89117 1.99098 7.03967 2.018 7.184L5.018 23.184C5.06089 23.4132 5.18251 23.6201 5.36182 23.7691C5.54113 23.9181 5.76686 23.9998 6 24H24C24.2331 23.9998 24.4589 23.9181 24.6382 23.7691C24.8175 23.6201 24.9391 23.4132 24.982 23.184L27.98 7.214L28.78 4H31C31.2652 4 31.5196 3.89464 31.7071 3.70711C31.8946 3.51957 32 3.26522 32 3ZM22 24C23.0609 24 24.0783 24.4214 24.8284 25.1716C25.5786 25.9217 26 26.9391 26 28C26 29.0609 25.5786 30.0783 24.8284 30.8284C24.0783 31.5786 23.0609 32 22 32C20.9391 32 19.9217 31.5786 19.1716 30.8284C18.4214 30.0783 18 29.0609 18 28C18 26.9391 18.4214 25.9217 19.1716 25.1716C19.9217 24.4214 20.9391 24 22 24ZM8 24C9.06086 24 10.0783 24.4214 10.8284 25.1716C11.5786 25.9217 12 26.9391 12 28C12 29.0609 11.5786 30.0783 10.8284 30.8284C10.0783 31.5786 9.06086 32 8 32C6.93913 32 5.92172 31.5786 5.17157 30.8284C4.42142 30.0783 4 29.0609 4 28C4 26.9391 4.42142 25.9217 5.17157 25.1716C5.92172 24.4214 6.93913 24 8 24ZM22 26C21.4696 26 20.9609 26.2107 20.5858 26.5858C20.2107 26.9609 20 27.4696 20 28C20 28.5304 20.2107 29.0391 20.5858 29.4142C20.9609 29.7893 21.4696 30 22 30C22.5304 30 23.0391 29.7893 23.4142 29.4142C23.7893 29.0391 24 28.5304 24 28C24 27.4696 23.7893 26.9609 23.4142 26.5858C23.0391 26.2107 22.5304 26 22 26ZM8 26C7.46956 26 6.96086 26.2107 6.58578 26.5858C6.21071 26.9609 6 27.4696 6 28C6 28.5304 6.21071 29.0391 6.58578 29.4142C6.96086 29.7893 7.46956 30 8 30C8.53043 30 9.03914 29.7893 9.41421 29.4142C9.78928 29.0391 10 28.5304 10 28C10 27.4696 9.78928 26.9609 9.41421 26.5858C9.03914 26.2107 8.53043 26 8 26Z" fill="black"/>
</svg>
