<?xml version="1.0" encoding="utf-8"?>
<!-- Generator: Adobe Illustrator 27.9.0, SVG Export Plug-In . SVG Version: 6.00 Build 0)  -->
<svg version="1.1" id="Layer_1" xmlns="http://www.w3.org/2000/svg" xmlns:xlink="http://www.w3.org/1999/xlink" x="0px" y="0px"
	 width="15px" height="14px" viewBox="0 0 25 23.6" style="enable-background:new 0 0 25 23.6;" xml:space="preserve">
<style type="text/css">
	.st0{fill:#5E5E5E;}
</style>
<g>
	<path class="st0" d="M23.6,10.6H1.4C0.6,10.6,0,11.2,0,12c0,0.8,0.6,1.4,1.4,1.4h22.2c0.8,0,1.4-0.6,1.4-1.4
		C25,11.2,24.4,10.6,23.6,10.6z"/>
	<g>
		<path class="st0" d="M22.4,7.9l-7.6-7.6c-0.5-0.5-1.3-0.5-1.8,0c-0.5,0.5-0.5,1.3,0,1.8l7.6,7.6c0.5,0.5,1.3,0.5,1.8,0
			C22.9,9.2,22.9,8.4,22.4,7.9z"/>
		<path class="st0" d="M10.2,0.4L2.6,7.9c-0.5,0.5-0.5,1.3,0,1.8c0.5,0.5,1.3,0.5,1.8,0l7.6-7.6c0.5-0.5,0.5-1.3,0-1.8
			C11.4-0.1,10.6-0.1,10.2,0.4z"/>
	</g>
	<path class="st0" d="M1.5,13.9l2.3,9.7h17.3l2.3-9.7H1.5z M7.2,22.4c-0.1,0-0.2,0-0.2,0c-0.4,0-0.8-0.3-0.9-0.7l-1.4-5.3
		c-0.1-0.5,0.2-1,0.6-1.1c0.5-0.1,1,0.2,1.1,0.6l1.4,5.3C8,21.8,7.7,22.3,7.2,22.4z M13.4,21.6c0,0.5-0.4,0.9-0.9,0.9l0,0
		c-0.5,0-0.9-0.4-0.9-0.9v-5.3c0-0.5,0.4-0.9,0.9-0.9l0,0c0.5,0,0.9,0.4,0.9,0.9L13.4,21.6z M20.3,16.3l-1.4,5.3
		c-0.1,0.4-0.5,0.7-0.9,0.7c-0.1,0-0.2,0-0.2,0c-0.5-0.1-0.8-0.6-0.6-1.1l1.4-5.3c0.1-0.5,0.6-0.8,1.1-0.6
		C20.2,15.3,20.5,15.8,20.3,16.3z"/>
</g>
</svg>
