<?xml version="1.0" encoding="utf-8"?>
<!-- Generator: Adobe Illustrator 27.9.0, SVG Export Plug-In . SVG Version: 6.00 Build 0)  -->
<svg version="1.1" id="Layer_1" xmlns="http://www.w3.org/2000/svg" xmlns:xlink="http://www.w3.org/1999/xlink" x="0px" y="0px"
	 width="13px" height="15px" viewBox="0 0 18.3 25" style="enable-background:new 0 0 18.3 25;" xml:space="preserve">
<style type="text/css">
	.st0{fill:#5E5E5E;}
</style>
<g>
	<path class="st0" d="M15.2,5.5c-2.1,0-4,0.6-5.5,1.6c-0.2-1.4-0.3-3.8,1.4-4.9c0.8-0.5,1.5-0.7,2-0.6c0.6,0.2,1,0.7,1,0.7
		c0.2,0.4,0.7,0.5,1.1,0.3c0.4-0.2,0.5-0.7,0.3-1.1c-0.1-0.1-0.7-1.2-2-1.5c-1-0.3-2.1,0-3.3,0.8c-2.2,1.4-2.3,4-2.2,5.9
		C6.7,5.9,5,5.5,3.1,5.5c-0.4,0-0.8,0.4-0.8,0.8c0,0.4,0.4,0.8,0.8,0.8c2.2,0,4.3,0.8,5.4,2.1l0.6,0.6l0.6-0.6
		c1.2-1.3,3.2-2.1,5.4-2.1c0.4,0,0.8-0.4,0.8-0.8C16,5.8,15.6,5.5,15.2,5.5z"/>
	<path class="st0" d="M13.4,8.3c-1.8,0-3.3,0.9-4.2,2.3C8.3,9.2,6.7,8.3,5,8.3c-2.7,0-5,2.2-5,5C0,19.8,9.2,25,9.2,25
		s9.2-5.2,9.2-11.7C18.3,10.5,16.1,8.3,13.4,8.3z M3.1,16.4c0,0-0.7-0.7-0.7-1.1c0-0.4,0.3-0.7,0.7-0.7c0.4,0,0.7,0.3,0.7,0.7
		C3.7,15.7,3.1,16.4,3.1,16.4z M6,11.3c0.4,0,0.7,0.3,0.7,0.7C6.7,12.3,6,13,6,13s-0.7-0.7-0.7-1.1C5.4,11.6,5.7,11.3,6,11.3z
		 M6.1,19.7c0,0-0.7-0.7-0.7-1.1c0-0.4,0.3-0.7,0.7-0.7c0.4,0,0.7,0.3,0.7,0.7C6.8,19,6.1,19.7,6.1,19.7z M8.9,22.4
		c0,0-0.7-0.7-0.7-1.1c0-0.4,0.3-0.7,0.7-0.7c0.4,0,0.7,0.3,0.7,0.7C9.6,21.8,8.9,22.4,8.9,22.4z M9.1,16.4c0,0-0.7-0.7-0.7-1.1
		c0-0.4,0.3-0.7,0.7-0.7c0.4,0,0.7,0.3,0.7,0.7C9.8,15.7,9.1,16.4,9.1,16.4z M11.7,19.7c0,0-0.7-0.7-0.7-1.1c0-0.4,0.3-0.7,0.7-0.7
		c0.4,0,0.7,0.3,0.7,0.7C12.4,19,11.7,19.7,11.7,19.7z M11.8,13c0,0-0.7-0.7-0.7-1.1c0-0.4,0.3-0.7,0.7-0.7c0.4,0,0.7,0.3,0.7,0.7
		C12.5,12.3,11.8,13,11.8,13z M14.8,16.4c0,0-0.7-0.7-0.7-1.1c0-0.4,0.3-0.7,0.7-0.7c0.4,0,0.7,0.3,0.7,0.7
		C15.4,15.7,14.8,16.4,14.8,16.4z"/>
</g>
</svg>
