<?xml version="1.0" encoding="utf-8"?>
<!-- Generator: Adobe Illustrator 27.9.0, SVG Export Plug-In . SVG Version: 6.00 Build 0)  -->
<svg version="1.1" id="Layer_1" xmlns="http://www.w3.org/2000/svg" xmlns:xlink="http://www.w3.org/1999/xlink" x="0px" y="0px"
	 width="15px" height="14.75px" viewBox="0 0 21 20" style="enable-background:new 0 0 21 20;" xml:space="preserve">
<style type="text/css">
	.st0{fill:none;stroke:url(#SVGID_1_);stroke-width:2;stroke-linecap:round;stroke-linejoin:round;}
	.st1{fill:#5D5D5D;}
</style>
<linearGradient id="SVGID_1_" gradientUnits="userSpaceOnUse" x1="7.0429" y1="12.1869" x2="19.4202" y2="3.9628" gradientTransform="matrix(1 0 0 -1 0 19.8898)">
	<stop  offset="1" style="stop-color:#030303"/>
	<stop  offset="1" style="stop-color:#000000"/>
</linearGradient>
<path class="st0" d="M14.9,2.5H6.1C4.2,2.5,2.6,4,2.6,5.8v8.3c0,1.8,1.6,3.3,3.5,3.3h8.8c1.9,0,3.5-1.5,3.5-3.3V5.8
	C18.4,4,16.8,2.5,14.9,2.5z"/>
<g>
	<path class="st1" d="M1411,438.3c-2.1,0-4,0.6-5.5,1.6c-0.2-1.4-0.3-3.8,1.4-4.9c0.8-0.5,1.5-0.7,2-0.6c0.6,0.2,1,0.7,1,0.7
		c0.2,0.4,0.7,0.5,1.1,0.3c0.4-0.2,0.5-0.7,0.3-1.1c-0.1-0.1-0.7-1.2-2-1.5c-1-0.3-2.1,0-3.3,0.8c-2.2,1.4-2.3,4-2.2,5.9
		c-1.4-0.8-3.1-1.3-5-1.3c-0.4,0-0.8,0.4-0.8,0.8c0,0.4,0.4,0.8,0.8,0.8c2.2,0,4.3,0.8,5.4,2.1l0.6,0.6l0.6-0.6
		c1.2-1.3,3.2-2.1,5.4-2.1c0.4,0,0.8-0.4,0.8-0.8C1411.8,438.6,1411.5,438.3,1411,438.3z"/>
	<path class="st1" d="M1409.2,441.1c-1.8,0-3.3,0.9-4.2,2.3c-0.9-1.4-2.4-2.3-4.2-2.3c-2.7,0-5,2.2-5,5c0,6.5,9.2,11.7,9.2,11.7
		s9.2-5.2,9.2-11.7C1414.2,443.4,1411.9,441.1,1409.2,441.1z M1398.9,449.2c0,0-0.7-0.7-0.7-1.1c0-0.4,0.3-0.7,0.7-0.7
		c0.4,0,0.7,0.3,0.7,0.7C1399.6,448.5,1398.9,449.2,1398.9,449.2z M1401.8,444.1c0.4,0,0.7,0.3,0.7,0.7c0,0.4-0.7,1.1-0.7,1.1
		s-0.7-0.7-0.7-1.1C1401.2,444.4,1401.5,444.1,1401.8,444.1z M1402,452.5c0,0-0.7-0.7-0.7-1.1c0-0.4,0.3-0.7,0.7-0.7
		c0.4,0,0.7,0.3,0.7,0.7C1402.6,451.8,1402,452.5,1402,452.5z M1404.7,455.3c0,0-0.7-0.7-0.7-1.1s0.3-0.7,0.7-0.7
		c0.4,0,0.7,0.3,0.7,0.7S1404.7,455.3,1404.7,455.3z M1404.9,449.2c0,0-0.7-0.7-0.7-1.1c0-0.4,0.3-0.7,0.7-0.7
		c0.4,0,0.7,0.3,0.7,0.7C1405.6,448.5,1404.9,449.2,1404.9,449.2z M1407.5,452.5c0,0-0.7-0.7-0.7-1.1c0-0.4,0.3-0.7,0.7-0.7
		c0.4,0,0.7,0.3,0.7,0.7C1408.2,451.8,1407.5,452.5,1407.5,452.5z M1407.6,445.8c0,0-0.7-0.7-0.7-1.1c0-0.4,0.3-0.7,0.7-0.7
		c0.4,0,0.7,0.3,0.7,0.7C1408.3,445.1,1407.6,445.8,1407.6,445.8z M1410.6,449.2c0,0-0.7-0.7-0.7-1.1c0-0.4,0.3-0.7,0.7-0.7
		c0.4,0,0.7,0.3,0.7,0.7C1411.3,448.5,1410.6,449.2,1410.6,449.2z"/>
</g>
<g>
	<path d="M11.4,11.7H9.2v-0.2c0-0.4,0-0.7,0.1-0.9s0.2-0.5,0.4-0.6s0.6-0.5,1.1-1c0.3-0.3,0.5-0.5,0.5-0.7s-0.1-0.4-0.2-0.5
		s-0.3-0.2-0.6-0.2c-0.3,0-0.5,0.1-0.7,0.3s-0.3,0.5-0.3,1L7.3,8.4c0.1-0.8,0.4-1.5,0.9-2s1.3-0.8,2.4-0.8c0.9,0,1.5,0.2,2.1,0.5
		c0.7,0.5,1.1,1.1,1.1,1.9c0,0.3-0.1,0.7-0.3,1s-0.6,0.7-1.1,1.1c-0.4,0.3-0.6,0.6-0.7,0.8S11.4,11.4,11.4,11.7z M9.1,12.3h2.4v2.1
		H9.1V12.3z"/>
</g>
</svg>
