<svg width="28" height="28" viewBox="0 0 28 28" fill="none" xmlns="http://www.w3.org/2000/svg">
<path d="M26 26L20.2094 20.2094M20.2094 20.2094C19.2188 21.1999 18.0429 21.9856 16.7488 22.5217C15.4546 23.0577 14.0675 23.3336 12.6667 23.3336C11.2659 23.3336 9.87881 23.0577 8.58464 22.5217C7.29046 21.9856 6.11455 21.1999 5.12403 20.2094C4.13351 19.2188 3.34779 18.0429 2.81173 16.7488C2.27566 15.4546 1.99976 14.0675 1.99976 12.6667C1.99976 11.2659 2.27566 9.87881 2.81173 8.58464C3.34779 7.29046 4.13351 6.11455 5.12403 5.12403C7.12447 3.12359 9.83765 1.99976 12.6667 1.99976C15.4957 1.99976 18.2089 3.12359 20.2094 5.12403C22.2098 7.12447 23.3336 9.83765 23.3336 12.6667C23.3336 15.4957 22.2098 18.2089 20.2094 20.2094Z" stroke="black" stroke-width="3" stroke-linecap="round" stroke-linejoin="round"/>
</svg>
