<svg id="icon__settings" xmlns="http://www.w3.org/2000/svg" width="15px" height="15px">
  <path d="m14.99,6.35h-.1l-1.36-.56c-.13-.48-.32-.93-.56-1.36l.56-1.36.07-.07-.03-.03-1.56-1.55-.03-.03-.07.07-1.35.56c-.42-.24-.88-.42-1.35-.56l-.57-1.36v-.1h-2.29v.1l-.56,1.36c-.48.13-.93.32-1.35.56l-1.36-.56-.07-.07-.03.03-1.56,1.56-.03.03.07.07.56,1.36c-.24.42-.42.88-.56,1.35L.1,6.35h-.1v2.29h.1l1.36.56c.13.48.32.93.56,1.35l-.56,1.36-.07.07.03.03,1.56,1.56.03.03.07-.07,1.36-.56c.42.24.88.42,1.35.56l.56,1.36v.1h2.29v-.1l.57-1.36c.47-.14.93-.32,1.35-.56l1.35.56.07.07.03-.03,1.56-1.56.03-.03-.07-.07-.56-1.36c.24-.42.43-.88.56-1.35l1.36-.56h.1v-.04s0-2.2,0-2.2v-.04Zm-7.5,4.18c-1.68,0-3.04-1.36-3.04-3.04s1.36-3.04,3.04-3.04,3.03,1.36,3.03,3.04-1.36,3.04-3.03,3.04Z"/>
</svg>