<svg width="87" height="87" viewBox="0 0 87 87" fill="none" xmlns="http://www.w3.org/2000/svg">
<g filter="url(#filter0_d_248_933)">
<circle cx="43.5" cy="39.5" r="39.5" fill="#323232"/>
<path d="M33.5665 23H31.4425L28.6705 14.432H30.6025L32.5105 20.456H32.5345L34.4665 14.432H36.4105L33.5665 23ZM36.9011 14.432H38.7851V23H36.9011V14.432ZM40.2002 14.432H46.6082V16.016H42.0842V17.852H46.2362V19.316H42.0842V21.416H46.7042V23H40.2002V14.432ZM55.9014 23H54.0294L52.5774 17.168H52.5534L51.1254 23H49.2174L46.9494 14.432H48.8334L50.1894 20.264H50.2134L51.7014 14.432H53.4654L54.9294 20.336H54.9534L56.3574 14.432H58.2054L55.9014 23Z" fill="white"/>
<path d="M33.9527 60.312C33.9207 60.096 33.8487 59.9 33.7367 59.724C33.6247 59.54 33.4847 59.38 33.3167 59.244C33.1487 59.108 32.9567 59.004 32.7407 58.932C32.5327 58.852 32.3127 58.812 32.0807 58.812C31.6567 58.812 31.2967 58.896 31.0007 59.064C30.7047 59.224 30.4647 59.444 30.2807 59.724C30.0967 59.996 29.9607 60.308 29.8727 60.66C29.7927 61.012 29.7527 61.376 29.7527 61.752C29.7527 62.112 29.7927 62.464 29.8727 62.808C29.9607 63.144 30.0967 63.448 30.2807 63.72C30.4647 63.992 30.7047 64.212 31.0007 64.38C31.2967 64.54 31.6567 64.62 32.0807 64.62C32.6567 64.62 33.1047 64.444 33.4247 64.092C33.7527 63.74 33.9527 63.276 34.0247 62.7H35.8487C35.8007 63.236 35.6767 63.72 35.4767 64.152C35.2767 64.584 35.0127 64.952 34.6847 65.256C34.3567 65.56 33.9727 65.792 33.5327 65.952C33.0927 66.112 32.6087 66.192 32.0807 66.192C31.4247 66.192 30.8327 66.08 30.3047 65.856C29.7847 65.624 29.3447 65.308 28.9847 64.908C28.6247 64.508 28.3487 64.04 28.1567 63.504C27.9647 62.96 27.8687 62.376 27.8687 61.752C27.8687 61.112 27.9647 60.52 28.1567 59.976C28.3487 59.424 28.6247 58.944 28.9847 58.536C29.3447 58.128 29.7847 57.808 30.3047 57.576C30.8327 57.344 31.4247 57.228 32.0807 57.228C32.5527 57.228 32.9967 57.296 33.4127 57.432C33.8367 57.568 34.2127 57.768 34.5407 58.032C34.8767 58.288 35.1527 58.608 35.3687 58.992C35.5847 59.376 35.7207 59.816 35.7767 60.312H33.9527ZM39.0553 62.688H41.2753L40.1953 59.544H40.1713L39.0553 62.688ZM39.2353 57.432H41.1673L44.3713 66H42.4153L41.7673 64.092H38.5633L37.8913 66H35.9953L39.2353 57.432ZM46.7541 61.308H48.8181C49.2501 61.308 49.5741 61.212 49.7901 61.02C50.0061 60.828 50.1141 60.516 50.1141 60.084C50.1141 59.668 50.0061 59.368 49.7901 59.184C49.5741 58.992 49.2501 58.896 48.8181 58.896H46.7541V61.308ZM44.8701 57.432H49.4901C49.8741 57.432 50.2181 57.496 50.5221 57.624C50.8341 57.744 51.0981 57.912 51.3141 58.128C51.5381 58.344 51.7061 58.596 51.8181 58.884C51.9381 59.164 51.9981 59.468 51.9981 59.796C51.9981 60.3 51.8901 60.736 51.6741 61.104C51.4661 61.472 51.1221 61.752 50.6421 61.944V61.968C50.8741 62.032 51.0661 62.132 51.2181 62.268C51.3701 62.396 51.4941 62.552 51.5901 62.736C51.6861 62.912 51.7541 63.108 51.7941 63.324C51.8421 63.54 51.8741 63.756 51.8901 63.972C51.8981 64.108 51.9061 64.268 51.9141 64.452C51.9221 64.636 51.9341 64.824 51.9501 65.016C51.9741 65.208 52.0061 65.392 52.0461 65.568C52.0941 65.736 52.1621 65.88 52.2501 66H50.3661C50.2621 65.728 50.1981 65.404 50.1741 65.028C50.1501 64.652 50.1141 64.292 50.0661 63.948C50.0021 63.5 49.8661 63.172 49.6581 62.964C49.4501 62.756 49.1101 62.652 48.6381 62.652H46.7541V66H44.8701V57.432ZM54.9753 59.016H52.4073V57.432H59.4273V59.016H56.8593V66H54.9753V59.016Z" fill="white"/>
<path d="M55.1349 42.3632L56.8018 33.195C56.8485 32.9381 56.8382 32.6741 56.7716 32.4216C56.7051 32.1691 56.5838 31.9344 56.4165 31.7339C56.2492 31.5334 56.0399 31.3721 55.8034 31.2615C55.5669 31.1508 55.309 31.0934 55.0479 31.0934H33.4764L32.8165 27.4638C32.742 27.053 32.5255 26.6813 32.205 26.4138C31.8844 26.1463 31.4801 25.9998 31.0625 26H28.764C28.5614 26 28.3671 26.0805 28.2238 26.2238C28.0805 26.3671 28 26.5614 28 26.764C28 26.9666 28.0805 27.161 28.2238 27.3043C28.3671 27.4475 28.5614 27.528 28.764 27.528H31.0625C31.1222 27.528 31.1799 27.5489 31.2257 27.5871C31.2715 27.6253 31.3025 27.6784 31.3131 27.7371L34.7132 46.4379C34.7512 46.6474 34.8265 46.8483 34.9354 47.0312C34.4178 47.4163 34.024 47.9442 33.8023 48.5501C33.5806 49.1559 33.5407 49.8134 33.6874 50.4416C33.8342 51.0698 34.1613 51.6415 34.6285 52.0865C35.0956 52.5314 35.6826 52.8302 36.3173 52.9461C36.9519 53.062 37.6066 52.9901 38.2009 52.739C38.7953 52.488 39.3033 52.0689 39.6627 51.5331C40.0221 50.9973 40.2172 50.3683 40.224 49.7231C40.2308 49.078 40.0491 48.445 39.7011 47.9017H49.4062C49.0106 48.5211 48.8325 49.2545 48.8998 49.9863C48.9672 50.7181 49.2762 51.4066 49.7781 51.9434C50.2801 52.4801 50.9465 52.8345 51.6721 52.9507C52.3978 53.0669 53.1415 52.9382 53.7859 52.5849C54.4303 52.2317 54.9388 51.674 55.2312 50.9997C55.5236 50.3255 55.5833 49.5732 55.4008 48.8613C55.2184 48.1494 54.8041 47.5185 54.2234 47.0681C53.6427 46.6177 52.9287 46.3734 52.1938 46.3737H36.4672C36.4075 46.3737 36.3498 46.3528 36.304 46.3146C36.2582 46.2764 36.2273 46.2233 36.2166 46.1646L35.7916 43.827H53.3809C53.7985 43.8272 54.2028 43.6807 54.5234 43.4132C54.844 43.1456 55.0604 42.774 55.1349 42.3632ZM38.6962 49.6844C38.6962 50.037 38.5916 50.3817 38.3957 50.6748C38.1999 50.968 37.9214 51.1965 37.5957 51.3314C37.27 51.4663 36.9115 51.5016 36.5657 51.4329C36.2199 51.3641 35.9022 51.1943 35.6529 50.945C35.4036 50.6957 35.2338 50.378 35.165 50.0322C35.0963 49.6864 35.1316 49.328 35.2665 49.0022C35.4014 48.6765 35.6299 48.398 35.9231 48.2022C36.2162 48.0063 36.5609 47.9017 36.9135 47.9017C37.3861 47.9022 37.8393 48.0902 38.1735 48.4244C38.5077 48.7587 38.6957 49.2118 38.6962 49.6844ZM53.9765 49.6844C53.9765 50.037 53.8719 50.3817 53.676 50.6748C53.4801 50.968 53.2017 51.1965 52.876 51.3314C52.5502 51.4663 52.1918 51.5016 51.846 51.4329C51.5002 51.3641 51.1825 51.1943 50.9332 50.945C50.6839 50.6957 50.5141 50.378 50.4453 50.0322C50.3765 49.6864 50.4118 49.328 50.5468 49.0022C50.6817 48.6765 50.9102 48.398 51.2033 48.2022C51.4965 48.0063 51.8412 47.9017 52.1938 47.9017C52.6664 47.9022 53.1195 48.0902 53.4537 48.4244C53.7879 48.7587 53.9759 49.2118 53.9765 49.6844ZM33.7542 32.6214H55.0479C55.0852 32.6215 55.122 32.6297 55.1558 32.6455C55.1896 32.6613 55.2195 32.6843 55.2434 32.713C55.2673 32.7416 55.2846 32.7751 55.2941 32.8112C55.3036 32.8473 55.3051 32.885 55.2984 32.9217L53.6315 42.0899C53.6209 42.1486 53.59 42.2016 53.5442 42.2399C53.4984 42.2781 53.4406 42.299 53.3809 42.299H35.5138L33.7542 32.6214Z" fill="white"/>
</g>
<defs>
<filter id="filter0_d_248_933" x="0" y="0" width="87" height="87" filterUnits="userSpaceOnUse" color-interpolation-filters="sRGB">
<feFlood flood-opacity="0" result="BackgroundImageFix"/>
<feColorMatrix in="SourceAlpha" type="matrix" values="0 0 0 0 0 0 0 0 0 0 0 0 0 0 0 0 0 0 127 0" result="hardAlpha"/>
<feOffset dy="4"/>
<feGaussianBlur stdDeviation="2"/>
<feComposite in2="hardAlpha" operator="out"/>
<feColorMatrix type="matrix" values="0 0 0 0 0 0 0 0 0 0 0 0 0 0 0 0 0 0 0.25 0"/>
<feBlend mode="normal" in2="BackgroundImageFix" result="effect1_dropShadow_248_933"/>
<feBlend mode="normal" in="SourceGraphic" in2="effect1_dropShadow_248_933" result="shape"/>
</filter>
</defs>
</svg>
